<svg xmlns="http://www.w3.org/2000/svg" width="23.807" height="23.807" viewBox="0 0 23.807 23.807">
  <path id="Icon_awesome-linkedin-in" data-name="Icon awesome-linkedin-in" d="M5.329,23.807H.393V7.913H5.329ZM2.858,5.745A2.872,2.872,0,1,1,5.717,2.859,2.883,2.883,0,0,1,2.858,5.745ZM23.8,23.807H18.876V16.07c0-1.844-.037-4.209-2.566-4.209-2.566,0-2.959,2-2.959,4.076v7.87H8.421V7.913h4.734v2.168h.069a5.186,5.186,0,0,1,4.67-2.567c5,0,5.913,3.289,5.913,7.562v8.731Z" transform="translate(0 0)" fill="#fff"/>
</svg>
