<svg xmlns="http://www.w3.org/2000/svg" width="23.27" height="23.27" viewBox="0 0 23.27 23.27">
  <path id="Icon_awesome-phone-alt" data-name="Icon awesome-phone-alt" d="M22.606,16.444l-5.09-2.182a1.091,1.091,0,0,0-1.273.314L13.989,17.33A16.847,16.847,0,0,1,5.936,9.277L8.69,7.023A1.088,1.088,0,0,0,9,5.75L6.822.66A1.1,1.1,0,0,0,5.572.028L.845,1.119A1.091,1.091,0,0,0,0,2.182,21.087,21.087,0,0,0,21.089,23.271a1.091,1.091,0,0,0,1.064-.845L23.243,17.7A1.1,1.1,0,0,0,22.606,16.444Z" transform="translate(0 0)" fill="#ea2e19"/>
</svg>
