<svg xmlns="http://www.w3.org/2000/svg" width="26.431" height="20.988" viewBox="0 0 26.431 20.988">
  <path id="Icon_awesome-twitter" data-name="Icon awesome-twitter" d="M23.714,8.611c.017.23.017.459.017.689A15.127,15.127,0,0,1,8.318,24.369,15.563,15.563,0,0,1,0,21.991a11.46,11.46,0,0,0,1.308.066,11.007,11.007,0,0,0,6.725-2.263,5.413,5.413,0,0,1-5.065-3.673,6.983,6.983,0,0,0,1.023.082,5.853,5.853,0,0,0,1.426-.18,5.328,5.328,0,0,1-4.344-5.2v-.066a5.55,5.55,0,0,0,2.449.672A5.263,5.263,0,0,1,1.107,7.021a5.167,5.167,0,0,1,.738-2.673A15.516,15.516,0,0,0,13.014,9.89a5.851,5.851,0,0,1-.134-1.213,5.355,5.355,0,0,1,5.417-5.3,5.462,5.462,0,0,1,3.958,1.672,10.814,10.814,0,0,0,3.438-1.279,5.305,5.305,0,0,1-2.381,2.919,11.055,11.055,0,0,0,3.119-.82,11.507,11.507,0,0,1-2.717,2.738Z" transform="translate(0 -3.381)" fill="#fff"/>
</svg>
