<svg xmlns="http://www.w3.org/2000/svg" width="27.978" height="20.987" viewBox="0 0 27.978 20.987">
  <path id="Icon_ionic-logo-youtube" data-name="Icon ionic-logo-youtube" d="M27.8,9.134A4.248,4.248,0,0,0,23.752,4.7c-3.028-.142-6.116-.2-9.269-.2H13.5c-3.148,0-6.241.055-9.269.2A4.258,4.258,0,0,0,.191,9.145c-.137,1.946-.2,3.891-.191,5.837s.055,3.891.186,5.842a4.263,4.263,0,0,0,4.039,4.454c3.181.148,6.443.213,9.761.208q4.984.016,9.761-.208a4.263,4.263,0,0,0,4.044-4.454c.131-1.951.191-3.9.186-5.848Q27.993,12.058,27.8,9.134ZM11.313,20.344V9.6l7.925,5.367Z" transform="translate(0 -4.5)" fill="#fff"/>
</svg>
